HIERARCHY
ROOT Hips
{
	OFFSET 0.000000 0.000000 0.000000 
	CHANNELS 6 Xposition Yposition Zposition Zrotation Yrotation Xrotation
	JOINT LeftUpLeg
	{
		OFFSET 1.363060 -1.794630 0.839290 
		CHANNELS 3 Zrotation Yrotation Xrotation
		JOINT LeftLeg
		{
			OFFSET 2.448110 -6.726130 0.000000 
			CHANNELS 3 Zrotation Yrotation Xrotation
			JOINT LeftFoot
			{
				OFFSET 2.562200 -7.039590 0.000000 
				CHANNELS 3 Zrotation Yrotation Xrotation
				JOINT LeftToeBase
				{
					OFFSET 0.157640 -0.433110 2.322550 
					CHANNELS 3 Zrotation Yrotation Xrotation
					End Site
					{
						OFFSET 0.000000 0.000000 0.000000 
					}
				}
			}
		}
	}
	JOINT RightUpLeg
	{
		OFFSET -1.305520 -1.794630 0.839290 
		CHANNELS 3 Zrotation Yrotation Xrotation
		JOINT RightLeg
		{
			OFFSET -2.542530 -6.985550 0.000000 
			CHANNELS 3 Zrotation Yrotation Xrotation
			JOINT RightFoot
			{
				OFFSET -2.568260 -7.056230 0.000000 
				CHANNELS 3 Zrotation Yrotation Xrotation
				JOINT RightToeBase
				{
					OFFSET -0.164730 -0.452590 2.363150 
					CHANNELS 3 Zrotation Yrotation Xrotation
					End Site
					{
						OFFSET 0.000000 0.000000 0.000000 
					}
				}
			}
		}
	}
	JOINT Spine
	{
		OFFSET 0.028270 2.035590 -0.193380 
		CHANNELS 3 Zrotation Yrotation Xrotation
		JOINT Spine1
		{
			OFFSET 0.056720 2.048850 -0.042750 
			CHANNELS 3 Zrotation Yrotation Xrotation
			JOINT Neck1
			{
				OFFSET -0.054170 1.746240 0.172020 
				CHANNELS 3 Zrotation Yrotation Xrotation
				JOINT Head
				{
					OFFSET 0.104070 1.761360 -0.123970 
					CHANNELS 3 Zrotation Yrotation Xrotation
					End Site
					{
						OFFSET 0.000000 0.000000 0.000000 
					}
				}
			}
			JOINT LeftArm
			{
				OFFSET 3.362410 1.200890 -0.311210 
				CHANNELS 3 Zrotation Yrotation Xrotation
				JOINT LeftForeArm
				{
					OFFSET 4.983000 -0.000000 -0.000000 
					CHANNELS 3 Zrotation Yrotation Xrotation
					JOINT LeftHand
					{
						OFFSET 3.483560 -0.000000 -0.000000 
						CHANNELS 3 Zrotation Yrotation Xrotation
						JOINT LeftHandIndex1
						{
							OFFSET 0.715260 -0.000000 -0.000000 
							CHANNELS 3 Zrotation Yrotation Xrotation
							End Site
							{
								OFFSET 0.000000 0.000000 0.000000 
							}
						}
					}
				}
			}
			JOINT RightArm
			{
				OFFSET -3.136600 1.374050 -0.404650 
				CHANNELS 3 Zrotation Yrotation Xrotation
				JOINT RightForeArm
				{
					OFFSET -5.241900 -0.000000 -0.000000 
					CHANNELS 3 Zrotation Yrotation Xrotation
					JOINT RightHand
					{
						OFFSET -3.444170 -0.000000 -0.000000 
						CHANNELS 3 Zrotation Yrotation Xrotation
						JOINT RightHandIndex1
						{
							OFFSET -0.622530 -0.000000 -0.000000 
							CHANNELS 3 Zrotation Yrotation Xrotation
							End Site
							{
								OFFSET 0.000000 0.000000 0.000000 
							}
						}
					}
				}
			}
		}
	}
}
MOTION
Frames: 18
Frame Time: 0.041667
0.450300 18.368579 0.595844 -1.680117 0.670197 17.862666 -10.610077 4.001907 -38.951089 2.275686 12.875701 37.032910 3.592330 -0.906847 17.669107 0.777100 -5.628400 -15.710000 18.311174 -10.711367 -44.341243 -1.835409 -13.115648 37.723444 -5.488860 7.533247 19.200119 -0.051000 1.456900 -4.006900 2.300437 0.006344 -6.740579 1.353239 0.422154 -14.745271 2.896324 -1.107099 21.247785 -1.959300 0.271900 9.437400 -42.681602 39.387034 63.267679 137.177164 -51.235570 -103.165926 -0.739445 -1.572453 -36.681792 -7.125000 0.000000 0.000000 46.856465 -45.051894 48.898172 -143.621731 42.121364 -109.217855 1.571944 1.772655 -17.451306 7.125000 0.000000 0.000000 
0.448769 18.356004 0.580863 -1.686109 0.638894 17.869656 -10.644392 3.985713 -39.069279 2.332728 12.938779 37.200981 3.536931 -0.829085 17.498143 0.821100 -5.781800 -16.152500 18.341085 -10.622865 -44.433115 -1.893402 -13.179796 37.905108 -5.461602 7.515381 19.017297 -0.058700 1.563900 -4.302000 2.332446 -0.073593 -6.692538 1.426922 0.396637 -14.692453 2.796370 -1.043476 21.034006 -2.025500 0.296000 9.233900 -43.664407 38.855864 62.740561 135.846819 -51.965742 -102.252048 -0.735106 -1.537071 -37.415505 -7.125000 0.000000 0.000000 47.365406 -44.479112 48.863815 -142.992341 42.634757 -108.777384 1.569243 1.725554 -18.027385 7.125000 0.000000 0.000000 
0.446691 18.343101 0.563804 -1.636912 0.565730 17.790844 -10.705422 3.960650 -39.112281 2.389930 12.997062 37.396797 3.534143 -0.869716 17.339725 0.795000 -5.691200 -15.891100 18.258737 -10.500505 -44.431857 -1.948063 -13.239744 38.078755 -5.462726 7.571743 18.915130 -0.050500 1.449800 -3.987500 2.345996 -0.161496 -6.623530 1.508563 0.371449 -14.681081 2.728694 -0.988841 20.837724 -2.077000 0.319500 9.040700 -44.736268 38.208332 62.120136 134.297913 -52.770091 -101.162441 -0.709839 -1.496238 -38.285281 -7.125000 0.000000 0.000000 47.948619 -43.844761 48.898576 -142.325903 43.162552 -108.300702 1.562668 1.671039 -18.558078 7.125000 0.000000 0.000000 
0.441661 18.328448 0.541606 -1.645384 0.597163 17.700724 -10.671662 3.857697 -39.137873 2.457496 13.063810 37.581579 3.445705 -0.724943 17.169212 0.826800 -5.801300 -16.209000 18.244357 -10.359433 -44.428931 -2.011738 -13.301758 38.264183 -5.402921 7.462802 18.728256 -0.053400 1.491700 -4.102800 2.374594 -0.277482 -6.528131 1.583244 0.331285 -14.624220 2.673310 -0.906694 20.494444 -2.122100 0.349400 8.751500 -45.872050 37.473427 61.493449 132.588953 -53.605990 -99.939564 -0.681434 -1.435319 -39.240448 -7.125000 0.000000 0.000000 48.518987 -43.044535 49.027760 -141.482128 43.799265 -107.703634 1.533122 1.642791 -18.908012 7.125000 0.000000 0.000000 
0.433241 18.314561 0.516128 -1.672726 0.699956 17.677770 -10.603006 3.691878 -39.222268 2.521665 13.135276 37.752887 3.350702 -0.570891 17.023103 0.862400 -5.921800 -16.557700 18.304576 -10.228487 -44.503229 -2.076013 -13.364708 38.437533 -5.284058 7.192611 18.498239 -0.062500 1.612600 -4.436100 2.425382 -0.423349 -6.437680 1.699263 0.286559 -14.554902 2.566311 -0.811948 19.900394 -2.199400 0.372800 8.285300 -47.109438 36.729695 60.857873 130.735633 -54.462883 -98.584388 -0.642090 -1.379194 -40.157792 -7.125000 0.000000 0.000000 49.102565 -42.142804 49.154319 -140.482519 44.529489 -106.990588 1.511270 1.619635 -19.008377 7.125000 0.000000 0.000000 
0.425040 18.304282 0.497867 -1.761248 0.660090 17.676035 -10.497504 3.631628 -39.302761 2.576885 13.196409 37.890934 3.301591 -0.493107 16.943600 0.843900 -5.859400 -16.377100 18.356303 -9.960537 -44.515428 -2.110865 -13.405185 38.562133 -5.200766 7.045439 18.374849 -0.044900 1.367300 -3.760000 2.490214 -0.495366 -6.324911 1.824467 0.280474 -14.407869 2.370309 -0.679836 19.027930 -2.332300 0.401500 7.646300 -48.374009 35.952656 60.298081 128.834576 -55.283687 -97.166012 -0.584423 -1.344638 -41.012631 -7.125000 0.000000 0.000000 49.654156 -41.192776 49.259205 -139.612015 45.149937 -106.350487 1.512989 1.572537 -19.196022 7.125000 0.000000 0.000000 
0.420338 18.296081 0.483870 -1.901003 0.556377 17.730681 -10.371161 3.611839 -39.390770 2.624717 13.249743 37.999283 3.265860 -0.431757 16.886427 0.800900 -5.712000 -15.951200 18.460842 -9.697336 -44.553226 -2.128208 -13.433967 38.650455 -5.139784 6.955669 18.262538 -0.037900 1.256800 -3.455700 2.525979 -0.515200 -6.165423 1.828507 0.284446 -14.093725 2.196015 -0.534051 17.849881 -2.462100 0.426700 6.836100 -49.490005 35.015641 59.838576 126.928896 -56.037166 -95.737495 -0.525976 -1.301910 -41.805374 -7.125000 0.000000 0.000000 50.265209 -40.134425 49.330624 -138.855519 45.677944 -105.771046 1.536186 1.510375 -19.437479 7.125000 0.000000 0.000000 
0.418807 18.295315 0.470748 -1.923953 0.465174 17.799105 -10.371084 3.572619 -39.460823 2.665234 13.286482 38.076774 3.120723 -0.146998 16.739962 0.841800 -5.852300 -16.356400 18.481312 -9.578233 -44.603811 -2.132864 -13.452570 38.674173 -5.111529 6.898656 18.182082 -0.047000 1.398500 -3.845900 2.508363 -0.598212 -5.970178 1.780334 0.261308 -13.685971 2.075067 -0.397362 16.455892 -2.570700 0.442200 5.892000 -50.365151 34.041711 59.437297 125.299667 -56.632417 -94.510627 -0.475955 -1.249905 -42.472653 -7.125000 0.000000 0.000000 50.935745 -38.864114 49.450874 -138.042158 46.222318 -105.136973 1.565950 1.456986 -19.641898 7.125000 0.000000 0.000000 
0.415745 18.295315 0.459594 -1.946228 0.196627 17.803372 -10.399971 3.688956 -39.497780 2.692917 13.302564 38.111025 2.994364 0.117745 16.671661 0.868800 -5.943200 -16.619700 18.422988 -9.312678 -44.545548 -2.136115 -13.467586 38.686223 -5.057238 6.775197 18.076675 -0.058800 1.564900 -4.304800 2.498703 -0.680600 -5.780996 1.813470 0.258659 -13.412292 1.930381 -0.206162 14.803080 -2.696800 0.475700 4.772800 -51.180273 33.261601 58.936869 123.808036 -57.158638 -93.388804 -0.455198 -1.194080 -42.672082 -7.125000 0.000000 0.000000 51.412056 -37.453114 49.880393 -137.257676 46.740239 -104.499924 1.618792 1.381048 -19.963126 7.125000 0.000000 0.000000 
0.413777 18.295534 0.451284 -1.880005 -0.114989 17.724345 -10.517212 3.870286 -39.461355 2.710083 13.296984 38.129413 2.883721 0.352487 16.591741 0.887500 -6.004900 -16.798800 18.250324 -9.091803 -44.411076 -2.137774 -13.479419 38.682528 -5.032072 6.707855 18.040964 -0.075500 1.772500 -4.877400 2.457866 -0.723664 -5.605276 1.833281 0.284758 -13.306252 1.901577 -0.020176 12.739020 -3.067400 0.508700 3.825200 -51.737722 32.533844 58.550843 122.525541 -57.588042 -92.432883 -0.473120 -1.120421 -42.669201 -7.125000 0.000000 0.000000 51.795109 -36.119648 50.378905 -136.500580 47.247025 -103.852205 1.701328 1.286823 -20.340611 7.125000 0.000000 0.000000 
0.415089 18.298705 0.441989 -1.736597 -0.225316 17.650800 -10.650984 3.880343 -39.371039 2.707476 13.279891 38.146617 2.874206 0.359539 16.540448 0.837100 -5.836300 -16.310200 18.074239 -9.121417 -44.344764 -2.136357 -13.489813 38.668369 -5.072335 6.785186 18.109879 -0.078100 1.803000 -4.961400 2.391340 -0.844940 -5.387974 1.789966 0.258829 -13.063600 1.725569 0.129621 11.004569 -3.147200 0.503700 2.492500 -52.039152 31.702031 58.181394 121.592592 -57.880245 -91.735975 -0.482661 -1.038257 -42.648031 -7.125000 0.000000 0.000000 52.198170 -34.621771 50.715332 -135.626845 47.787923 -103.129555 1.757492 1.222716 -20.763058 7.125000 0.000000 0.000000 
0.413012 18.299471 0.431710 -1.659367 -0.303609 17.551453 -10.696012 3.879192 -39.257099 2.713273 13.271598 38.167910 2.850756 0.402809 16.517400 0.801900 -5.715500 -15.961100 17.977941 -9.155457 -44.273607 -2.142805 -13.503396 38.683424 -5.097214 6.831166 18.119517 -0.073600 1.750200 -4.815900 2.352046 -0.961266 -5.130249 1.796115 0.235744 -12.720073 1.608192 0.295215 9.270656 -3.172800 0.500200 1.250800 -52.209115 30.867784 57.820909 120.952676 -58.065395 -91.263472 -0.485815 -0.988347 -42.515786 -7.125000 0.000000 0.000000 52.468918 -33.053283 50.912295 -134.745889 48.299657 -102.417482 1.797235 1.179631 -21.065417 7.125000 0.000000 0.000000 
0.405904 18.298705 0.419573 -1.679192 -0.401050 17.417180 -10.649681 3.951173 -39.152828 2.736111 13.278948 38.205779 2.804808 0.505777 16.511457 0.802000 -5.715700 -15.961700 17.977685 -9.120088 -44.184532 -2.159192 -13.522993 38.749277 -5.108048 6.873193 18.072709 -0.069600 1.702600 -4.684400 2.342236 -0.996534 -4.880762 1.849603 0.255951 -12.457341 1.461001 0.403418 7.492390 -3.196000 0.467300 -0.003900 -52.193591 30.220384 57.642127 120.665474 -58.138181 -91.075107 -0.523736 -0.997737 -42.138633 -7.125000 0.000000 0.000000 52.629555 -31.662472 50.893030 -133.921025 48.771689 -101.751295 1.833703 1.131982 -21.320839 7.125000 0.000000 0.000000 
0.396937 18.293456 0.401311 -1.743136 -0.440387 17.324628 -10.546267 3.942427 -39.106156 2.769389 13.304903 38.277193 2.775382 0.563622 16.502249 0.788700 -5.669300 -15.827800 18.063800 -9.099456 -44.195615 -2.166636 -13.546595 38.852203 -5.213035 7.219600 18.143715 -0.037400 1.247500 -3.430100 2.323405 -0.944900 -4.665015 1.856667 0.307035 -12.258811 1.321757 0.341940 5.963733 -3.200200 0.368100 -1.120700 -51.902110 29.715883 57.721696 120.704924 -58.134850 -91.073895 -0.432579 -0.970301 -41.387092 -7.125000 0.000000 0.000000 52.821987 -30.580265 50.516998 -133.184910 49.179385 -101.175582 1.846734 1.089059 -21.511880 7.125000 0.000000 0.000000 
0.385674 18.279788 0.377801 -1.752662 -0.475946 17.294488 -10.515867 3.893158 -39.176624 2.817800 13.354698 38.405108 2.708105 0.676360 16.403271 0.803100 -5.719700 -15.973300 18.140453 -9.075914 -44.315570 -2.186046 -13.589560 38.979725 -5.287592 7.495919 18.197128 -0.018800 0.885400 -2.433700 2.302093 -0.879668 -4.463760 1.903875 0.364512 -12.030748 1.176399 0.216393 4.731610 -3.193700 0.257700 -2.055200 -51.453364 29.314754 57.901692 120.933466 -58.070043 -91.227245 -0.362059 -0.975714 -40.276736 -7.125000 0.000000 0.000000 52.974474 -29.797659 49.961801 -132.645962 49.469301 -100.774716 1.836447 1.049579 -21.412495 7.125000 0.000000 0.000000 
0.375724 18.267213 0.359759 -1.782573 -0.455268 17.264426 -10.478482 3.860567 -39.238841 2.869673 13.409496 38.543056 2.642678 0.787843 16.282749 0.856200 -5.901100 -16.497700 18.283381 -9.179001 -44.460426 -2.233143 -13.647793 39.159530 -5.317936 7.633348 18.129275 -0.019200 0.895400 -2.461200 2.285303 -0.803200 -4.245349 1.939816 0.413958 -11.659105 1.104439 0.028322 3.961193 -3.117000 0.139400 -2.655400 -50.860718 28.923835 58.121557 121.184301 -57.990294 -91.409706 -0.300008 -0.995206 -39.072686 -7.125000 0.000000 0.000000 53.029314 -29.325623 49.235660 -132.430595 49.582775 -100.644652 1.815493 1.018842 -20.964131 7.125000 0.000000 0.000000 
0.366320 18.256496 0.343575 -1.874681 -0.382647 17.239365 -10.389502 3.830919 -39.300858 2.923196 13.470533 38.690020 2.622287 0.810697 16.196041 0.914400 -6.092900 -17.054200 18.524895 -9.347856 -44.635875 -2.301404 -13.717620 39.391270 -5.327365 7.708775 17.924515 -0.033000 1.172200 -3.222800 2.254945 -0.680328 -4.031943 1.886516 0.463933 -11.225975 1.087986 -0.181389 3.689158 -3.016900 0.029300 -2.868300 -49.999883 28.552109 58.506882 121.408943 -57.911000 -91.581767 -0.230737 -1.028913 -37.879710 -7.125000 0.000000 0.000000 53.002578 -29.131445 48.325155 -132.454156 49.564277 -100.724901 1.781279 0.994555 -20.227417 7.125000 0.000000 0.000000 
0.356478 18.244577 0.321815 -1.832809 -0.363804 17.176172 -10.428348 3.794139 -39.358728 2.979591 13.531439 38.875819 2.589043 0.841038 16.090503 0.961500 -6.243600 -17.493000 18.600672 -9.486650 -44.785997 -2.372146 -13.796674 39.624157 -5.367118 7.865308 17.810378 -0.035800 1.222000 -3.359700 2.209758 -0.537776 -3.789331 1.894021 0.531517 -10.743810 1.028002 -0.364812 3.531126 -2.960800 -0.063800 -2.973200 -49.033599 28.289112 58.885037 121.734066 -57.805126 -91.830724 -0.161094 -1.079488 -36.799062 -7.125000 0.000000 0.000000 52.880955 -29.136706 47.371923 -132.682475 49.435723 -100.980216 1.730404 0.975993 -19.133216 7.125000 0.000000 0.000000 
